<?xml version="1.0" encoding="UTF-8"?>
<!DOCTYPE svg PUBLIC "-//W3C//DTD SVG 1.1//EN" "http://www.w3.org/Graphics/SVG/1.1/DTD/svg11.dtd">
<svg xmlns="http://www.w3.org/2000/svg" version="1.1" width="1080px" height="1080px" style="shape-rendering:geometricPrecision; text-rendering:geometricPrecision; image-rendering:optimizeQuality; fill-rule:evenodd; clip-rule:evenodd" xmlns:xlink="http://www.w3.org/1999/xlink">
<g><path style="opacity:1" fill="#fefefe" d="M -0.5,-0.5 C 359.5,-0.5 719.5,-0.5 1079.5,-0.5C 1079.5,359.5 1079.5,719.5 1079.5,1079.5C 719.5,1079.5 359.5,1079.5 -0.5,1079.5C -0.5,719.5 -0.5,359.5 -0.5,-0.5 Z"/></g>
<g><path style="opacity:1" fill="#13b3e3" d="M 329.5,565.5 C 331.77,575.59 329.436,584.423 322.5,592C 318.96,593.931 315.626,596.098 312.5,598.5C 317.57,610.713 322.236,623.047 326.5,635.5C 318.5,635.5 310.5,635.5 302.5,635.5C 300.856,635.714 299.356,635.38 298,634.5C 295.496,626.481 292.996,618.481 290.5,610.5C 289.368,607.106 288.034,603.773 286.5,600.5C 283.324,612.044 280.658,623.711 278.5,635.5C 271.167,635.5 263.833,635.5 256.5,635.5C 254.5,635.5 252.5,635.5 250.5,635.5C 255.849,608.769 261.516,582.103 267.5,555.5C 282.822,554.334 298.156,554.167 313.5,555C 320.589,555.938 325.922,559.438 329.5,565.5 Z"/></g>
<g><path style="opacity:1" fill="#98999a" d="M 305.5,568.5 C 303.208,568.244 301.041,568.577 299,569.5C 297.049,576.754 295.549,584.087 294.5,591.5C 292.076,591.808 289.743,591.474 287.5,590.5C 289.975,581.601 291.975,572.601 293.5,563.5C 296.518,563.335 299.518,563.502 302.5,564C 304.141,565.129 305.141,566.629 305.5,568.5 Z"/></g>
<g><path style="opacity:1" fill="#18b3e3" d="M 520.5,569.5 C 519.992,573.197 519.326,576.864 518.5,580.5C 519.5,580.5 520.5,580.5 521.5,580.5C 519.895,583.378 518.561,586.378 517.5,589.5C 513.388,601.733 511.055,614.399 510.5,627.5C 509.908,630.127 509.575,632.794 509.5,635.5C 503.309,636.726 496.976,636.726 490.5,635.5C 485.7,632.403 483.366,627.903 483.5,622C 485.089,613.145 486.756,604.311 488.5,595.5C 489.15,593.565 489.483,591.565 489.5,589.5C 488.5,589.5 487.5,589.5 486.5,589.5C 484.5,589.5 482.5,589.5 480.5,589.5C 480.401,586.327 481.068,583.327 482.5,580.5C 493.221,578.303 501.887,572.803 508.5,564C 512.821,563.501 517.154,563.334 521.5,563.5C 521.675,565.621 521.341,567.621 520.5,569.5 Z"/></g>
<g><path style="opacity:1" fill="#f47e16" d="M 758.5,570.5 C 757.766,571.708 757.433,573.041 757.5,574.5C 752.489,574.334 747.489,574.501 742.5,575C 741.333,576.167 740.167,577.333 739,578.5C 737.577,582.956 736.41,587.456 735.5,592C 737.81,592.497 740.143,592.663 742.5,592.5C 744.167,592.5 745.833,592.5 747.5,592.5C 747.371,594.216 747.038,595.883 746.5,597.5C 746.586,598.496 746.252,599.329 745.5,600C 741.514,600.499 737.514,600.666 733.5,600.5C 731.048,613.876 728.382,627.209 725.5,640.5C 719.833,640.5 714.167,640.5 708.5,640.5C 706.833,640.5 705.167,640.5 703.5,640.5C 705.497,629.513 707.497,618.513 709.5,607.5C 710.216,605.444 710.883,603.277 711.5,601C 710.552,600.517 709.552,600.351 708.5,600.5C 706.5,600.5 704.5,600.5 702.5,600.5C 702.557,599.391 702.89,598.391 703.5,597.5C 704.038,595.883 704.371,594.216 704.5,592.5C 707.5,592.5 710.5,592.5 713.5,592.5C 714.283,578.554 721.283,569.387 734.5,565C 742.515,564.442 750.515,564.609 758.5,565.5C 758.5,567.167 758.5,568.833 758.5,570.5 Z"/></g>
<g><path style="opacity:1" fill="#f47e16" d="M 823.5,571.5 C 818.722,586.936 814.388,602.603 810.5,618.5C 806.833,618.5 803.167,618.5 799.5,618.5C 797.833,618.5 796.167,618.5 794.5,618.5C 797.207,601.218 799.54,583.884 801.5,566.5C 809.196,566.169 816.862,566.503 824.5,567.5C 823.754,568.736 823.421,570.07 823.5,571.5 Z"/></g>
<g><path style="opacity:1" fill="#9a9b9b" d="M 329.5,565.5 C 332.063,567.612 333.896,570.279 335,573.5C 336.957,583.628 334.124,592.128 326.5,599C 323.691,600.741 320.691,601.908 317.5,602.5C 322.191,615.399 327.191,628.232 332.5,641C 322.839,641.5 313.172,641.666 303.5,641.5C 303.167,639.5 302.833,637.5 302.5,635.5C 310.5,635.5 318.5,635.5 326.5,635.5C 322.236,623.047 317.57,610.713 312.5,598.5C 315.626,596.098 318.96,593.931 322.5,592C 329.436,584.423 331.77,575.59 329.5,565.5 Z"/></g>
<g><path style="opacity:1" fill="#f8f9f9" d="M 305.5,568.5 C 305.957,576.646 303.624,583.813 298.5,590C 297.255,590.791 295.922,591.291 294.5,591.5C 295.549,584.087 297.049,576.754 299,569.5C 301.041,568.577 303.208,568.244 305.5,568.5 Z"/></g>
<g><path style="opacity:1" fill="#9d9c9b" d="M 520.5,569.5 C 522.924,569.192 525.257,569.526 527.5,570.5C 526.265,572.316 526.265,573.983 527.5,575.5C 525.54,577.156 523.54,578.823 521.5,580.5C 520.5,580.5 519.5,580.5 518.5,580.5C 519.326,576.864 519.992,573.197 520.5,569.5 Z"/></g>
<g><path style="opacity:1" fill="#f47d14" d="M 575.5,577.5 C 574.106,581.553 572.772,585.72 571.5,590C 567.179,590.499 562.846,590.666 558.5,590.5C 556.833,590.5 555.167,590.5 553.5,590.5C 553.5,587.833 553.5,585.167 553.5,582.5C 552.382,577.746 549.382,576.246 544.5,578C 539.097,581.286 537.597,585.786 540,591.5C 540.816,592.823 541.983,593.489 543.5,593.5C 550.441,595.83 557.441,598.33 564.5,601C 566.734,603.063 568.734,605.229 570.5,607.5C 573.528,628.659 564.195,639.826 542.5,641C 530.749,642.981 519.749,641.148 509.5,635.5C 509.575,632.794 509.908,630.127 510.5,627.5C 511.266,625.316 511.933,622.982 512.5,620.5C 514.045,619.548 515.712,619.215 517.5,619.5C 522.5,619.5 527.5,619.5 532.5,619.5C 532.5,621.167 532.5,622.833 532.5,624.5C 531.777,628.39 533.11,631.056 536.5,632.5C 543.373,633.665 547.04,630.499 547.5,623C 547.486,621.615 547.152,620.449 546.5,619.5C 546.586,618.504 546.252,617.671 545.5,617C 538.442,614.26 531.442,611.426 524.5,608.5C 522.833,607.167 521.167,605.833 519.5,604.5C 517.758,599.692 517.091,594.692 517.5,589.5C 518.561,586.378 519.895,583.378 521.5,580.5C 523.54,578.823 525.54,577.156 527.5,575.5C 541.36,569.005 555.693,567.839 570.5,572C 573.707,572.572 575.374,574.405 575.5,577.5 Z"/></g>
<g><path style="opacity:1" fill="#f47f19" d="M 701.5,576.5 C 701.707,582.798 698.707,586.631 692.5,588C 689.854,588.497 687.187,588.664 684.5,588.5C 676.03,581.467 676.696,575.301 686.5,570C 693.193,568.609 698.193,570.776 701.5,576.5 Z"/></g>
<g><path style="opacity:1" fill="#9d9a98" d="M 758.5,570.5 C 760.167,570.5 761.833,570.5 763.5,570.5C 763.726,573.249 763.393,575.916 762.5,578.5C 757.533,579.329 752.533,579.829 747.5,580C 743.205,583.093 741.538,587.26 742.5,592.5C 740.143,592.663 737.81,592.497 735.5,592C 736.41,587.456 737.577,582.956 739,578.5C 740.167,577.333 741.333,576.167 742.5,575C 747.489,574.501 752.489,574.334 757.5,574.5C 757.433,573.041 757.766,571.708 758.5,570.5 Z"/></g>
<g><path style="opacity:1" fill="#9e9a97" d="M 823.5,571.5 C 825.167,571.5 826.833,571.5 828.5,571.5C 824.173,588.818 819.84,606.151 815.5,623.5C 811.833,623.5 808.167,623.5 804.5,623.5C 802.833,623.5 801.167,623.5 799.5,623.5C 799.5,621.833 799.5,620.167 799.5,618.5C 803.167,618.5 806.833,618.5 810.5,618.5C 814.388,602.603 818.722,586.936 823.5,571.5 Z"/></g>
<g><path style="opacity:1" fill="#9d9b99" d="M 701.5,576.5 C 705.926,578.359 707.426,581.692 706,586.5C 704.52,589.817 702.02,591.817 698.5,592.5C 694.833,592.5 691.167,592.5 687.5,592.5C 686.5,591.167 685.5,589.833 684.5,588.5C 687.187,588.664 689.854,588.497 692.5,588C 698.707,586.631 701.707,582.798 701.5,576.5 Z"/></g>
<g><path style="opacity:1" fill="#9f9893" d="M 553.5,582.5 C 546.737,583.014 543.404,586.681 543.5,593.5C 541.983,593.489 540.816,592.823 540,591.5C 537.597,585.786 539.097,581.286 544.5,578C 549.382,576.246 552.382,577.746 553.5,582.5 Z"/></g>
<g><path style="opacity:1" fill="#9c9a97" d="M 575.5,577.5 C 577.903,577.695 579.57,578.862 580.5,581C 578.942,585.398 577.776,589.898 577,594.5C 570.924,595.476 564.758,595.81 558.5,595.5C 558.5,593.833 558.5,592.167 558.5,590.5C 562.846,590.666 567.179,590.499 571.5,590C 572.772,585.72 574.106,581.553 575.5,577.5 Z"/></g>
<g><path style="opacity:1" fill="#f47e17" d="M 782.5,583.5 C 781.366,586.37 780.7,589.37 780.5,592.5C 782.5,592.5 784.5,592.5 786.5,592.5C 788.176,593.183 788.843,594.517 788.5,596.5C 787.566,597.568 787.232,598.901 787.5,600.5C 784.5,600.5 781.5,600.5 778.5,600.5C 776.452,609.409 774.785,618.409 773.5,627.5C 772.843,631.51 774.51,633.176 778.5,632.5C 780.847,633.607 781.18,635.274 779.5,637.5C 779.67,638.822 779.337,639.989 778.5,641C 771.118,641.763 763.784,641.597 756.5,640.5C 752.05,637.863 750.05,633.863 750.5,628.5C 752.169,619.156 753.836,609.823 755.5,600.5C 754.167,600.5 752.833,600.5 751.5,600.5C 750.167,600.5 748.833,600.5 747.5,600.5C 747.5,599.5 747.5,598.5 747.5,597.5C 748.234,596.122 748.901,594.622 749.5,593C 753.979,591.729 758.312,590.062 762.5,588C 765.5,585 768.5,582 771.5,579C 775.5,578.333 779.5,578.333 783.5,579C 782.62,580.356 782.286,581.856 782.5,583.5 Z"/></g>
<g><path style="opacity:1" fill="#17b3e3" d="M 398.5,589.5 C 400.156,596.385 399.156,602.885 395.5,609C 383.258,609.177 371.091,609.677 359,610.5C 358.333,615.167 358.333,619.833 359,624.5C 360.525,627.5 362.692,628.167 365.5,626.5C 369.424,624.248 371.757,620.915 372.5,616.5C 379.5,616.5 386.5,616.5 393.5,616.5C 393.5,617.833 393.5,619.167 393.5,620.5C 392.571,623.675 391.738,627.009 391,630.5C 378.758,636.026 365.925,637.859 352.5,636C 348.932,635.312 345.599,634.145 342.5,632.5C 335.458,627.573 332.125,620.739 332.5,612C 333.152,594.344 342.152,583.678 359.5,580C 368.167,579.333 376.833,579.333 385.5,580C 391.366,581.248 395.699,584.415 398.5,589.5 Z"/></g>
<g><path style="opacity:1" fill="#15b3e3" d="M 472.5,587.5 C 472.665,590.85 472.498,594.183 472,597.5C 469.433,610.166 466.933,622.833 464.5,635.5C 457.833,635.5 451.167,635.5 444.5,635.5C 442.5,635.5 440.5,635.5 438.5,635.5C 440.319,622.739 442.652,610.073 445.5,597.5C 445.66,595.801 445.494,594.134 445,592.5C 440.96,590.847 437.627,591.847 435,595.5C 431.972,608.806 429.139,622.139 426.5,635.5C 419.833,635.5 413.167,635.5 406.5,635.5C 404.5,635.5 402.5,635.5 400.5,635.5C 403.465,617.172 407.132,599.006 411.5,581C 418.5,580.333 425.5,580.333 432.5,581C 433.227,582.399 433.727,583.899 434,585.5C 434.725,586.059 435.558,586.392 436.5,586.5C 440.518,583.824 444.851,581.658 449.5,580C 459.12,577.349 466.787,579.849 472.5,587.5 Z"/></g>
<g><path style="opacity:1" fill="#9e9996" d="M 782.5,583.5 C 784.527,583.338 786.527,583.505 788.5,584C 787.675,586.778 787.008,589.611 786.5,592.5C 784.5,592.5 782.5,592.5 780.5,592.5C 780.7,589.37 781.366,586.37 782.5,583.5 Z"/></g>
<g><path style="opacity:1" fill="#97999a" d="M 375.5,594.5 C 373.983,594.511 372.816,595.177 372,596.5C 370.295,598.577 369.128,600.91 368.5,603.5C 365.753,603.813 363.086,603.48 360.5,602.5C 362.02,597.29 364.686,592.79 368.5,589C 373.913,587.1 376.247,588.933 375.5,594.5 Z"/></g>
<g><path style="opacity:1" fill="#9a9a9b" d="M 472.5,587.5 C 476.188,590.043 478.188,593.543 478.5,598C 475.83,612.182 472.997,626.349 470,640.5C 461.585,641.483 453.085,641.817 444.5,641.5C 444.5,639.5 444.5,637.5 444.5,635.5C 451.167,635.5 457.833,635.5 464.5,635.5C 466.933,622.833 469.433,610.166 472,597.5C 472.498,594.183 472.665,590.85 472.5,587.5 Z"/></g>
<g><path style="opacity:1" fill="#a5a6a6" d="M 486.5,589.5 C 487.5,589.5 488.5,589.5 489.5,589.5C 489.483,591.565 489.15,593.565 488.5,595.5C 487.5,595.5 486.5,595.5 485.5,595.5C 485.833,593.5 486.167,591.5 486.5,589.5 Z"/></g>
<g><path style="opacity:1" fill="#979b9d" d="M 398.5,589.5 C 400.836,591.004 402.669,593.004 404,595.5C 405.089,602.111 404.256,608.444 401.5,614.5C 389.185,615.499 376.851,615.832 364.5,615.5C 364.185,619.371 364.518,623.038 365.5,626.5C 362.692,628.167 360.525,627.5 359,624.5C 358.333,619.833 358.333,615.167 359,610.5C 371.091,609.677 383.258,609.177 395.5,609C 399.156,602.885 400.156,596.385 398.5,589.5 Z"/></g>
<g><path style="opacity:1" fill="#9b9c9c" d="M 445.5,597.5 C 442.959,599.206 440.959,601.373 439.5,604C 437.525,616.33 434.858,628.496 431.5,640.5C 423.193,641.498 414.86,641.831 406.5,641.5C 406.5,639.5 406.5,637.5 406.5,635.5C 413.167,635.5 419.833,635.5 426.5,635.5C 429.139,622.139 431.972,608.806 435,595.5C 437.627,591.847 440.96,590.847 445,592.5C 445.494,594.134 445.66,595.801 445.5,597.5 Z"/></g>
<g><path style="opacity:1" fill="#f8ac67" d="M 578.5,593.5 C 582.319,592.834 586.319,592.501 590.5,592.5C 594.893,592.509 598.893,593.176 602.5,594.5C 594.586,593.533 586.586,593.199 578.5,593.5 Z"/></g>
<g><path style="opacity:1" fill="#e49852" d="M 675.5,593.5 C 679.298,592.517 683.298,592.183 687.5,592.5C 691.167,592.5 694.833,592.5 698.5,592.5C 698.672,593.492 698.338,594.158 697.5,594.5C 690.352,593.508 683.019,593.175 675.5,593.5 Z"/></g>
<g><path style="opacity:1" fill="#9d9996" d="M 517.5,589.5 C 517.091,594.692 517.758,599.692 519.5,604.5C 518.413,609.433 517.747,614.433 517.5,619.5C 515.712,619.215 514.045,619.548 512.5,620.5C 511.933,622.982 511.266,625.316 510.5,627.5C 511.055,614.399 513.388,601.733 517.5,589.5 Z"/></g>
<g><path style="opacity:1" fill="#f47e15" d="M 641.5,597.5 C 641.953,606.555 642.953,615.555 644.5,624.5C 645.57,621.361 646.904,618.361 648.5,615.5C 651.103,608.03 654.103,600.696 657.5,593.5C 661.5,592.167 665.5,592.167 669.5,593.5C 668.37,594.622 667.703,595.956 667.5,597.5C 660.881,611.409 654.214,625.409 647.5,639.5C 641.202,640.496 634.868,640.83 628.5,640.5C 626.833,640.5 625.167,640.5 623.5,640.5C 623.468,635.609 622.801,630.943 621.5,626.5C 621.649,623.393 621.149,620.393 620,617.5C 616.243,624.681 612.743,632.014 609.5,639.5C 603.202,640.496 596.868,640.83 590.5,640.5C 588.833,640.5 587.167,640.5 585.5,640.5C 583.546,624.741 581.213,609.075 578.5,593.5C 586.586,593.199 594.586,593.533 602.5,594.5C 602.5,595.5 602.5,596.5 602.5,597.5C 603.747,606.479 604.914,615.479 606,624.5C 607.411,622.35 608.245,620.016 608.5,617.5C 612.262,609.467 615.929,601.301 619.5,593C 626.492,592.5 633.492,592.334 640.5,592.5C 640.216,594.415 640.549,596.081 641.5,597.5 Z"/></g>
<g><path style="opacity:1" fill="#f47e14" d="M 675.5,593.5 C 683.019,593.175 690.352,593.508 697.5,594.5C 697.5,595.5 697.5,596.5 697.5,597.5C 694.376,611.788 691.376,626.121 688.5,640.5C 682.833,640.5 677.167,640.5 671.5,640.5C 669.473,640.662 667.473,640.495 665.5,640C 668.355,626.889 671.022,613.723 673.5,600.5C 674.407,598.343 675.073,596.01 675.5,593.5 Z"/></g>
<g><path style="opacity:1" fill="#f6f8f9" d="M 375.5,594.5 C 375.5,597.5 375.5,600.5 375.5,603.5C 373.167,603.5 370.833,603.5 368.5,603.5C 369.128,600.91 370.295,598.577 372,596.5C 372.816,595.177 373.983,594.511 375.5,594.5 Z"/></g>
<g><path style="opacity:1" fill="#a19b97" d="M 602.5,597.5 C 604.144,597.286 605.644,597.62 607,598.5C 607.651,604.827 608.151,611.16 608.5,617.5C 608.245,620.016 607.411,622.35 606,624.5C 604.914,615.479 603.747,606.479 602.5,597.5 Z"/></g>
<g><path style="opacity:1" fill="#a49c97" d="M 641.5,597.5 C 642.833,597.5 644.167,597.5 645.5,597.5C 645.495,603.791 646.495,609.791 648.5,615.5C 646.904,618.361 645.57,621.361 644.5,624.5C 642.953,615.555 641.953,606.555 641.5,597.5 Z"/></g>
<g><path style="opacity:1" fill="#9c9a99" d="M 667.5,597.5 C 669.5,597.5 671.5,597.5 673.5,597.5C 673.5,598.5 673.5,599.5 673.5,600.5C 666.002,614.833 659.002,629.499 652.5,644.5C 644.528,645.498 636.528,645.831 628.5,645.5C 628.5,643.833 628.5,642.167 628.5,640.5C 634.868,640.83 641.202,640.496 647.5,639.5C 654.214,625.409 660.881,611.409 667.5,597.5 Z"/></g>
<g><path style="opacity:1" fill="#9c9a98" d="M 697.5,597.5 C 699.5,597.5 701.5,597.5 703.5,597.5C 702.89,598.391 702.557,599.391 702.5,600.5C 699.115,615.424 696.115,630.424 693.5,645.5C 685.826,645.666 678.159,645.5 670.5,645C 671.38,643.644 671.714,642.144 671.5,640.5C 677.167,640.5 682.833,640.5 688.5,640.5C 691.376,626.121 694.376,611.788 697.5,597.5 Z"/></g>
<g><path style="opacity:1" fill="#9c9a98" d="M 746.5,597.5 C 746.833,597.5 747.167,597.5 747.5,597.5C 747.5,598.5 747.5,599.5 747.5,600.5C 748.833,600.5 750.167,600.5 751.5,600.5C 751.714,602.144 751.38,603.644 750.5,605C 746.514,605.499 742.514,605.666 738.5,605.5C 736.247,618.59 733.581,631.59 730.5,644.5C 723.197,645.497 715.863,645.831 708.5,645.5C 708.5,643.833 708.5,642.167 708.5,640.5C 714.167,640.5 719.833,640.5 725.5,640.5C 728.382,627.209 731.048,613.876 733.5,600.5C 737.514,600.666 741.514,600.499 745.5,600C 746.252,599.329 746.586,598.496 746.5,597.5 Z"/></g>
<g><path style="opacity:1" fill="#9e9a98" d="M 788.5,596.5 C 789.919,597.451 791.585,597.784 793.5,597.5C 793.167,600.167 792.833,602.833 792.5,605.5C 789.428,605.183 786.428,605.516 783.5,606.5C 781.402,615.086 779.736,623.752 778.5,632.5C 774.51,633.176 772.843,631.51 773.5,627.5C 774.785,618.409 776.452,609.409 778.5,600.5C 781.5,600.5 784.5,600.5 787.5,600.5C 787.232,598.901 787.566,597.568 788.5,596.5 Z"/></g>
<g><path style="opacity:1" fill="#999a9a" d="M 290.5,610.5 C 287.908,620.518 285.575,630.685 283.5,641C 274.506,641.5 265.506,641.666 256.5,641.5C 256.5,639.5 256.5,637.5 256.5,635.5C 263.833,635.5 271.167,635.5 278.5,635.5C 280.658,623.711 283.324,612.044 286.5,600.5C 288.034,603.773 289.368,607.106 290.5,610.5 Z"/></g>
<g><path style="opacity:1" fill="#aaa49e" d="M 708.5,600.5 C 709.552,600.351 710.552,600.517 711.5,601C 710.883,603.277 710.216,605.444 709.5,607.5C 709.279,606.265 708.612,605.265 707.5,604.5C 708.246,603.264 708.579,601.93 708.5,600.5 Z"/></g>
<g><path style="opacity:1" fill="#fcfbfa" d="M 519.5,604.5 C 521.167,605.833 522.833,607.167 524.5,608.5C 525.475,610.193 526.808,611.693 528.5,613C 534.192,616.064 540.192,618.23 546.5,619.5C 547.152,620.449 547.486,621.615 547.5,623C 547.04,630.499 543.373,633.665 536.5,632.5C 536.5,629.833 536.5,627.167 536.5,624.5C 535.167,624.5 533.833,624.5 532.5,624.5C 532.5,622.833 532.5,621.167 532.5,619.5C 527.5,619.5 522.5,619.5 517.5,619.5C 517.747,614.433 518.413,609.433 519.5,604.5 Z"/></g>
<g><path style="opacity:1" fill="#9b9a98" d="M 570.5,607.5 C 573.063,609.612 574.896,612.279 576,615.5C 577.875,628.252 573.042,637.418 561.5,643C 547.122,647.531 532.789,647.531 518.5,643C 511.833,642.667 505.167,642.333 498.5,642C 495.064,640.726 492.397,638.559 490.5,635.5C 496.976,636.726 503.309,636.726 509.5,635.5C 519.749,641.148 530.749,642.981 542.5,641C 564.195,639.826 573.528,628.659 570.5,607.5 Z"/></g>
<g><path style="opacity:1" fill="#a29d99" d="M 524.5,608.5 C 531.442,611.426 538.442,614.26 545.5,617C 546.252,617.671 546.586,618.504 546.5,619.5C 540.192,618.23 534.192,616.064 528.5,613C 526.808,611.693 525.475,610.193 524.5,608.5 Z"/></g>
<g><path style="opacity:1" fill="#9b9997" d="M 621.5,626.5 C 619.325,632.853 616.658,639.02 613.5,645C 605.841,645.5 598.174,645.666 590.5,645.5C 590.5,643.833 590.5,642.167 590.5,640.5C 596.868,640.83 603.202,640.496 609.5,639.5C 612.743,632.014 616.243,624.681 620,617.5C 621.149,620.393 621.649,623.393 621.5,626.5 Z"/></g>
<g><path style="opacity:1" fill="#9b9c9c" d="M 393.5,620.5 C 394.918,622.308 396.918,622.975 399.5,622.5C 398.652,627.226 397.485,631.892 396,636.5C 392.454,638.681 388.62,640.181 384.5,641C 375.87,642.368 367.203,642.702 358.5,642C 351.756,641.066 346.423,637.9 342.5,632.5C 345.599,634.145 348.932,635.312 352.5,636C 365.925,637.859 378.758,636.026 391,630.5C 391.738,627.009 392.571,623.675 393.5,620.5 Z"/></g>
<g><path style="opacity:1" fill="#f4801a" d="M 799.5,623.5 C 801.167,623.5 802.833,623.5 804.5,623.5C 807.468,624.467 809.468,626.467 810.5,629.5C 811.186,633.287 810.186,636.454 807.5,639C 803.747,640.989 799.747,641.822 795.5,641.5C 786.695,633.534 788.028,627.534 799.5,623.5 Z"/></g>
<g><path style="opacity:1" fill="#9c9896" d="M 532.5,624.5 C 533.833,624.5 535.167,624.5 536.5,624.5C 536.5,627.167 536.5,629.833 536.5,632.5C 533.11,631.056 531.777,628.39 532.5,624.5 Z"/></g>
<g><path style="opacity:1" fill="#9f9b98" d="M 810.5,629.5 C 815.261,631.616 816.761,635.283 815,640.5C 811.457,645.462 806.624,647.296 800.5,646C 798.014,645.344 796.347,643.844 795.5,641.5C 799.747,641.822 803.747,640.989 807.5,639C 810.186,636.454 811.186,633.287 810.5,629.5 Z"/></g>
<g><path style="opacity:1" fill="#9e9e9e" d="M 779.5,637.5 C 781.604,637.201 783.604,637.534 785.5,638.5C 784.885,641.039 784.218,643.539 783.5,646C 776.833,646.667 770.167,646.667 763.5,646C 760.405,645.065 758.071,643.231 756.5,640.5C 763.784,641.597 771.118,641.763 778.5,641C 779.337,639.989 779.67,638.822 779.5,637.5 Z"/></g>
</svg>
